<svg xmlns="http://www.w3.org/2000/svg" width="93" height="324" viewBox="0 0 93 324" fill="none">
  <path d="M-33.4168 1C-20.7806 5.89468 17.6723 20.5088 23.7376 27.2215C31.3193 35.6124 64.5622 58.1629 78.5592 91.202C92.5562 124.241 100.721 147.316 76.8096 211.821C57.6804 263.425 -5.03398 290.311 -34 297.303M-25.2519 16.7329C-16.1149 18.8306 5.42489 26.1726 18.4888 38.759C34.8186 54.4919 59.3134 70.2248 62.2294 84.3844C65.1454 98.544 71.5607 124.765 75.06 128.961C78.5592 133.156 89.6402 170.391 86.1409 201.857C82.6417 233.322 48.8156 262.166 37.7346 271.081C28.8699 278.214 -12.6157 299.925 -32.8336 309.889M-25.2519 28.7948C-20.975 29.494 -8.80539 33.4098 5.65817 43.4788C23.7376 56.0651 20.8216 49.772 28.9865 56.5896C37.1514 63.4072 50.5652 78.0912 56.3973 91.202C62.2294 104.313 90.2234 138.925 82.6417 183.502C75.06 228.078 75.06 248.531 51.1484 267.935C32.0192 283.458 -12.8101 311.113 -32.8336 323" stroke="black" stroke-width="2"/>
</svg>