<svg xmlns="http://www.w3.org/2000/svg" width="544" height="382" viewBox="0 0 544 382" fill="none">
  <path d="M219 6.5547C125.4 11.3547 63.6667 130.221 44.5 189.055L3.38164 355.259C1.20572 364.055 0.117756 368.452 1.19436 371.915C2.13798 374.949 4.16054 377.533 6.87979 379.178C9.98223 381.055 14.5125 381.055 23.5729 381.055H522.308C530.265 381.055 534.243 381.055 537.493 378.92C540.128 377.189 542.386 373.903 543.057 370.822C543.884 367.023 542.524 363.481 539.803 356.397C514.306 290.021 440.433 116.461 403 55.0547C358.5 -17.9453 336 0.554699 219 6.5547Z" fill="#FBC5CD"/>
</svg>